<svg width="16" height="16" viewBox="0 0 16 16" fill="none" xmlns="http://www.w3.org/2000/svg">
<path d="M7.33333 11.333C7.70152 11.333 8 11.6315 8 11.9997C8 12.3679 7.70152 12.6663 7.33333 12.6663H2.66667C2.29848 12.6663 2 12.3679 2 11.9997C2 11.6315 2.29848 11.333 2.66667 11.333H7.33333ZM11.3333 3.99967C11.3333 3.63148 11.6318 3.33301 12 3.33301C12.3682 3.33301 12.6667 3.63148 12.6667 3.99967V10.3903L13.5286 9.52832C13.789 9.26797 14.211 9.26797 14.4714 9.52832C14.7317 9.78867 14.7317 10.2107 14.4714 10.471L12.4714 12.471C12.211 12.7314 11.789 12.7314 11.5286 12.471L9.52865 10.471L9.48307 10.4202C9.26951 10.1584 9.28457 9.7724 9.52865 9.52832C9.77272 9.28424 10.1587 9.26918 10.4206 9.48275L10.4714 9.52832L11.3333 10.3903V3.99967ZM7.33333 7.33301C7.70152 7.33301 8 7.63148 8 7.99967C8 8.36786 7.70152 8.66634 7.33333 8.66634H2.66667C2.29848 8.66634 2 8.36786 2 7.99967C2 7.63148 2.29848 7.33301 2.66667 7.33301H7.33333ZM8.66667 3.33301C9.03486 3.33301 9.33333 3.63148 9.33333 3.99967C9.33333 4.36786 9.03486 4.66634 8.66667 4.66634H2.66667C2.29848 4.66634 2 4.36786 2 3.99967C2 3.63148 2.29848 3.33301 2.66667 3.33301H8.66667Z" fill="#FFFFFF"/>
</svg>
