<svg width="16" height="16" viewBox="0 0 16 16" fill="none" xmlns="http://www.w3.org/2000/svg">
<path d="M4.05827 4.61895L2.9672 5.71002C2.85235 5.82487 2.71835 5.8799 2.56522 5.87512C2.41209 5.87033 2.2781 5.81051 2.16325 5.69566C2.05797 5.58081 2.00294 5.44682 1.99815 5.29369C1.99337 5.14056 2.0484 5.00656 2.16325 4.89172L4.23054 2.82442C4.28797 2.767 4.35018 2.72632 4.41717 2.70239C4.48417 2.67847 4.55595 2.6665 4.63252 2.6665C4.70908 2.6665 4.78086 2.67847 4.84786 2.70239C4.91485 2.72632 4.97706 2.767 5.03449 2.82442L7.10178 4.89172C7.20706 4.99699 7.2597 5.12859 7.2597 5.28651C7.2597 5.44443 7.20706 5.58081 7.10178 5.69566C6.98693 5.81051 6.85055 5.86794 6.69263 5.86794C6.53471 5.86794 6.39833 5.81051 6.28348 5.69566L5.20676 4.61895L5.20676 12.7589C5.20676 12.9216 5.15173 13.058 5.04167 13.1681C4.9316 13.2781 4.79522 13.3332 4.63251 13.3332C4.46981 13.3332 4.33343 13.2781 4.22336 13.1681C4.1133 13.058 4.05827 12.9216 4.05827 12.7589L4.05827 4.61895Z" fill="white"/>
<path d="M10.9418 11.3807L12.0328 10.2897C12.1477 10.1748 12.2817 10.1198 12.4348 10.1246C12.5879 10.1293 12.7219 10.1892 12.8368 10.304C12.9421 10.4189 12.9971 10.5529 13.0019 10.706C13.0067 10.8591 12.9516 10.9931 12.8368 11.108L10.7695 13.1753C10.7121 13.2327 10.6499 13.2734 10.5829 13.2973C10.5159 13.3212 10.4441 13.3332 10.3675 13.3332C10.291 13.3332 10.2192 13.3212 10.1522 13.2973C10.0852 13.2734 10.023 13.2327 9.96554 13.1753L7.89825 11.108C7.79297 11.0027 7.74033 10.8711 7.74033 10.7132C7.74033 10.5552 7.79297 10.4189 7.89825 10.304C8.0131 10.1892 8.14948 10.1317 8.3074 10.1317C8.46532 10.1317 8.6017 10.1892 8.71655 10.304L9.79327 11.3807V3.24076C9.79327 3.07806 9.8483 2.94167 9.95837 2.83161C10.0684 2.72154 10.2048 2.66651 10.3675 2.66651C10.5302 2.66651 10.6666 2.72154 10.7767 2.83161C10.8867 2.94167 10.9418 3.07806 10.9418 3.24076V11.3807Z" fill="white"/>
</svg>
