<svg width="16" height="17" viewBox="0 0 16 17" fill="currentColor" xmlns="http://www.w3.org/2000/svg">
	<path d="M7.33333 3.83301C7.70152 3.83301 8 4.13148 8 4.49967C8 4.86786 7.70152 5.16634 7.33333 5.16634H2.66667C2.29848 5.16634 2 4.86786 2 4.49967C2 4.13148 2.29848 3.83301 2.66667 3.83301H7.33333Z" fill="white"/>
	<path d="M7.33333 7.83301C7.70152 7.83301 8 8.13148 8 8.49967C8 8.86786 7.70152 9.16634 7.33333 9.16634H2.66667C2.29848 9.16634 2 8.86786 2 8.49967C2 8.13148 2.29848 7.83301 2.66667 7.83301H7.33333Z" fill="white"/>
	<path d="M8.66667 11.833C9.03486 11.833 9.33333 12.1315 9.33333 12.4997C9.33333 12.8679 9.03486 13.1663 8.66667 13.1663H2.66667C2.29848 13.1663 2 12.8679 2 12.4997C2 12.1315 2.29848 11.833 2.66667 11.833H8.66667Z" fill="white"/>
	<path d="M11.5794 3.98275C11.8413 3.76918 12.2273 3.78424 12.4714 4.02832L14.4714 6.02832L14.5169 6.0791C14.7305 6.34095 14.7154 6.72695 14.4714 6.97103C14.2273 7.21511 13.8413 7.23017 13.5794 7.0166L13.5286 6.97103L12 5.44238L10.4714 6.97103C10.211 7.23138 9.789 7.23138 9.52865 6.97103C9.2683 6.71068 9.2683 6.28867 9.52865 6.02832L11.5286 4.02832L11.5794 3.98275Z" fill="white"/>
	<path d="M11.3333 12.4997V4.49967C11.3333 4.13148 11.6318 3.83301 12 3.83301C12.3682 3.83301 12.6667 4.13148 12.6667 4.49967V12.4997C12.6667 12.8679 12.3682 13.1663 12 13.1663C11.6318 13.1663 11.3333 12.8679 11.3333 12.4997Z" fill="white"/>
</svg>
